<svg width="133" height="25" viewBox="0 0 133 25" fill="none" xmlns="http://www.w3.org/2000/svg">
<path d="M14.5455 6.54545C14.4091 5.39394 13.8561 4.5 12.8864 3.86364C11.9167 3.22727 10.7273 2.90909 9.31818 2.90909C8.28788 2.90909 7.38636 3.07576 6.61364 3.40909C5.84849 3.74242 5.25 4.20076 4.81818 4.78409C4.39394 5.36742 4.18182 6.0303 4.18182 6.77273C4.18182 7.39394 4.32955 7.92803 4.625 8.375C4.92803 8.81439 5.31439 9.18182 5.78409 9.47727C6.25379 9.76515 6.74621 10.0038 7.26136 10.1932C7.77652 10.375 8.25 10.5227 8.68182 10.6364L11.0455 11.2727C11.6515 11.4318 12.3258 11.6515 13.0682 11.9318C13.8182 12.2121 14.5341 12.5947 15.2159 13.0795C15.9053 13.5568 16.4735 14.1705 16.9205 14.9205C17.3674 15.6705 17.5909 16.5909 17.5909 17.6818C17.5909 18.9394 17.2614 20.0758 16.6023 21.0909C15.9508 22.1061 14.9962 22.9129 13.7386 23.5114C12.4886 24.1098 10.9697 24.4091 9.18182 24.4091C7.51515 24.4091 6.07197 24.1402 4.85227 23.6023C3.64015 23.0644 2.68561 22.3144 1.98864 21.3523C1.29924 20.3902 0.909091 19.2727 0.818182 18H3.72727C3.80303 18.8788 4.09848 19.6061 4.61364 20.1818C5.13636 20.75 5.79545 21.1742 6.59091 21.4545C7.39394 21.7273 8.25758 21.8636 9.18182 21.8636C10.2576 21.8636 11.2235 21.6894 12.0795 21.3409C12.9356 20.9848 13.6136 20.4924 14.1136 19.8636C14.6136 19.2273 14.8636 18.4848 14.8636 17.6364C14.8636 16.8636 14.6477 16.2348 14.2159 15.75C13.7841 15.2652 13.2159 14.8712 12.5114 14.5682C11.8068 14.2652 11.0455 14 10.2273 13.7727L7.36364 12.9545C5.54545 12.4318 4.10606 11.6856 3.04545 10.7159C1.98485 9.74621 1.45455 8.47727 1.45455 6.90909C1.45455 5.60606 1.80682 4.4697 2.51136 3.5C3.22348 2.52273 4.17803 1.76515 5.375 1.22727C6.57955 0.681817 7.92424 0.40909 9.40909 0.40909C10.9091 0.40909 12.2424 0.678029 13.4091 1.21591C14.5758 1.74621 15.5 2.47348 16.1818 3.39773C16.8712 4.32197 17.2348 5.37121 17.2727 6.54545H14.5455ZM28.6317 24.3636C27.0559 24.3636 25.6734 23.9886 24.484 23.2386C23.3022 22.4886 22.3779 21.4394 21.7113 20.0909C21.0522 18.7424 20.7226 17.1667 20.7226 15.3636C20.7226 13.5455 21.0522 11.9583 21.7113 10.6023C22.3779 9.24621 23.3022 8.19318 24.484 7.44318C25.6734 6.69318 27.0559 6.31818 28.6317 6.31818C30.2075 6.31818 31.5863 6.69318 32.7681 7.44318C33.9575 8.19318 34.8817 9.24621 35.5408 10.6023C36.2075 11.9583 36.5408 13.5455 36.5408 15.3636C36.5408 17.1667 36.2075 18.7424 35.5408 20.0909C34.8817 21.4394 33.9575 22.4886 32.7681 23.2386C31.5863 23.9886 30.2075 24.3636 28.6317 24.3636ZM28.6317 21.9545C29.8287 21.9545 30.8135 21.6477 31.5863 21.0341C32.359 20.4205 32.9309 19.6136 33.3022 18.6136C33.6734 17.6136 33.859 16.5303 33.859 15.3636C33.859 14.197 33.6734 13.1098 33.3022 12.1023C32.9309 11.0947 32.359 10.2803 31.5863 9.65909C30.8135 9.03788 29.8287 8.72727 28.6317 8.72727C27.4347 8.72727 26.4499 9.03788 25.6772 9.65909C24.9044 10.2803 24.3325 11.0947 23.9613 12.1023C23.59 13.1098 23.4044 14.197 23.4044 15.3636C23.4044 16.5303 23.59 17.6136 23.9613 18.6136C24.3325 19.6136 24.9044 20.4205 25.6772 21.0341C26.4499 21.6477 27.4347 21.9545 28.6317 21.9545ZM51.3145 16.8636V6.54545H53.9964V24H51.3145V21.0455H51.1327C50.7236 21.9318 50.0873 22.6856 49.2236 23.3068C48.36 23.9205 47.2691 24.2273 45.9509 24.2273C44.86 24.2273 43.8903 23.9886 43.0418 23.5114C42.1933 23.0265 41.5267 22.2992 41.0418 21.3295C40.557 20.3523 40.3145 19.1212 40.3145 17.6364V6.54545H42.9964V17.4545C42.9964 18.7273 43.3524 19.7424 44.0645 20.5C44.7842 21.2576 45.7009 21.6364 46.8145 21.6364C47.4812 21.6364 48.1592 21.4659 48.8486 21.125C49.5456 20.7841 50.1289 20.2614 50.5986 19.5568C51.0759 18.8523 51.3145 17.9545 51.3145 16.8636ZM61.2701 0.727272V24H58.5883V0.727272H61.2701ZM70.9984 24.4091C69.8924 24.4091 68.8886 24.2008 67.987 23.7841C67.0855 23.3598 66.3696 22.75 65.8393 21.9545C65.309 21.1515 65.0439 20.1818 65.0439 19.0455C65.0439 18.0455 65.2408 17.2348 65.6348 16.6136C66.0287 15.9848 66.5552 15.4924 67.2143 15.1364C67.8734 14.7803 68.6007 14.5152 69.3961 14.3409C70.1992 14.1591 71.006 14.0152 71.8166 13.9091C72.8772 13.7727 73.737 13.6705 74.3961 13.6023C75.0628 13.5265 75.5477 13.4015 75.8507 13.2273C76.1613 13.053 76.3166 12.75 76.3166 12.3182V12.2273C76.3166 11.1061 76.0098 10.2348 75.3961 9.61364C74.7901 8.99242 73.8696 8.68182 72.6348 8.68182C71.3545 8.68182 70.3507 8.96212 69.6234 9.52273C68.8961 10.0833 68.3848 10.6818 68.0893 11.3182L65.5439 10.4091C65.9984 9.34848 66.6045 8.52273 67.362 7.93182C68.1272 7.33333 68.9605 6.91667 69.862 6.68182C70.7711 6.43939 71.6651 6.31818 72.5439 6.31818C73.1045 6.31818 73.7484 6.38636 74.4757 6.52273C75.2105 6.65151 75.9189 6.92045 76.6007 7.32954C77.2901 7.73864 77.862 8.35606 78.3166 9.18182C78.7711 10.0076 78.9984 11.1136 78.9984 12.5V24H76.3166V21.6364H76.1802C75.9984 22.0152 75.6954 22.4205 75.2711 22.8523C74.8469 23.2841 74.2825 23.6515 73.578 23.9545C72.8734 24.2576 72.0136 24.4091 70.9984 24.4091ZM71.4075 22C72.4681 22 73.362 21.7917 74.0893 21.375C74.8242 20.9583 75.3772 20.4205 75.7484 19.7614C76.1272 19.1023 76.3166 18.4091 76.3166 17.6818V15.2273C76.203 15.3636 75.953 15.4886 75.5666 15.6023C75.1878 15.7083 74.7484 15.803 74.2484 15.8864C73.756 15.9621 73.2749 16.0303 72.8052 16.0909C72.3431 16.1439 71.9681 16.1894 71.6802 16.2273C70.9833 16.3182 70.3317 16.4659 69.7257 16.6705C69.1272 16.8674 68.6423 17.1667 68.2711 17.5682C67.9075 17.9621 67.7257 18.5 67.7257 19.1818C67.7257 20.1136 68.0704 20.8182 68.7598 21.2955C69.4567 21.7652 70.3393 22 71.4075 22ZM90.6642 24.3636C89.0278 24.3636 87.6188 23.9773 86.4369 23.2045C85.2551 22.4318 84.346 21.3674 83.7097 20.0114C83.0733 18.6553 82.7551 17.1061 82.7551 15.3636C82.7551 13.5909 83.0809 12.0265 83.7324 10.6705C84.3915 9.30682 85.3081 8.24242 86.4824 7.47727C87.6642 6.70455 89.043 6.31818 90.6188 6.31818C91.846 6.31818 92.9521 6.54545 93.9369 7C94.9218 7.45455 95.7286 8.09091 96.3574 8.90909C96.9862 9.72727 97.3763 10.6818 97.5278 11.7727H94.846C94.6415 10.9773 94.1869 10.2727 93.4824 9.65909C92.7854 9.03788 91.846 8.72727 90.6642 8.72727C89.6188 8.72727 88.7021 9 87.9142 9.54545C87.1339 10.0833 86.5241 10.8447 86.0847 11.8295C85.6528 12.8068 85.4369 13.9545 85.4369 15.2727C85.4369 16.6212 85.6491 17.7955 86.0733 18.7955C86.5051 19.7955 87.1112 20.572 87.8915 21.125C88.6794 21.678 89.6036 21.9545 90.6642 21.9545C91.3612 21.9545 91.9938 21.8333 92.5619 21.5909C93.1301 21.3485 93.6112 21 94.0051 20.5455C94.3991 20.0909 94.6794 19.5455 94.846 18.9091H97.5278C97.3763 19.9394 97.0013 20.8674 96.4028 21.6932C95.8119 22.5114 95.0278 23.1629 94.0506 23.6477C93.0809 24.125 91.9521 24.3636 90.6642 24.3636ZM108.446 24.3636C106.765 24.3636 105.314 23.9924 104.094 23.25C102.882 22.5 101.946 21.4545 101.287 20.1136C100.636 18.7652 100.31 17.197 100.31 15.4091C100.31 13.6212 100.636 12.0455 101.287 10.6818C101.946 9.31061 102.863 8.24242 104.037 7.47727C105.219 6.70455 106.598 6.31818 108.174 6.31818C109.083 6.31818 109.981 6.4697 110.867 6.77273C111.753 7.07576 112.56 7.56818 113.287 8.25C114.015 8.92424 114.594 9.81818 115.026 10.9318C115.458 12.0455 115.674 13.4167 115.674 15.0455V16.1818H102.219V13.8636H112.946C112.946 12.8788 112.75 12 112.356 11.2273C111.969 10.4545 111.416 9.8447 110.696 9.39773C109.984 8.95076 109.143 8.72727 108.174 8.72727C107.106 8.72727 106.181 8.99242 105.401 9.52273C104.628 10.0455 104.034 10.7273 103.617 11.5682C103.2 12.4091 102.992 13.3106 102.992 14.2727V15.8182C102.992 17.1364 103.219 18.2538 103.674 19.1705C104.136 20.0795 104.776 20.7727 105.594 21.25C106.412 21.7197 107.363 21.9545 108.446 21.9545C109.151 21.9545 109.787 21.8561 110.356 21.6591C110.931 21.4545 111.428 21.1515 111.844 20.75C112.261 20.3409 112.583 19.8333 112.81 19.2273L115.401 19.9545C115.128 20.8333 114.67 21.6061 114.026 22.2727C113.382 22.9318 112.587 23.447 111.64 23.8182C110.693 24.1818 109.628 24.3636 108.446 24.3636ZM131.797 10.4545L129.388 11.1364C129.236 10.7348 129.013 10.3447 128.717 9.96591C128.43 9.57955 128.036 9.26136 127.536 9.01136C127.036 8.76136 126.395 8.63636 125.615 8.63636C124.547 8.63636 123.657 8.88258 122.945 9.375C122.24 9.85985 121.888 10.4773 121.888 11.2273C121.888 11.8939 122.13 12.4205 122.615 12.8068C123.1 13.1932 123.858 13.5152 124.888 13.7727L127.479 14.4091C129.039 14.7879 130.202 15.3674 130.967 16.1477C131.733 16.9205 132.115 17.9167 132.115 19.1364C132.115 20.1364 131.827 21.0303 131.251 21.8182C130.683 22.6061 129.888 23.2273 128.865 23.6818C127.842 24.1364 126.653 24.3636 125.297 24.3636C123.517 24.3636 122.043 23.9773 120.876 23.2045C119.71 22.4318 118.971 21.303 118.661 19.8182L121.206 19.1818C121.448 20.1212 121.907 20.8258 122.581 21.2955C123.263 21.7652 124.153 22 125.251 22C126.501 22 127.494 21.7348 128.229 21.2045C128.971 20.6667 129.342 20.0227 129.342 19.2727C129.342 18.6667 129.13 18.1591 128.706 17.75C128.282 17.3333 127.63 17.0227 126.751 16.8182L123.842 16.1364C122.244 15.7576 121.07 15.1705 120.32 14.375C119.577 13.572 119.206 12.5682 119.206 11.3636C119.206 10.3788 119.483 9.50758 120.036 8.75C120.596 7.99242 121.358 7.39773 122.32 6.96591C123.289 6.53409 124.388 6.31818 125.615 6.31818C127.342 6.31818 128.698 6.69697 129.683 7.45454C130.676 8.21212 131.38 9.21212 131.797 10.4545Z" fill="black"/>
</svg>
